# xmcd
#
# Track frame offsets:
#	150
#	3145
#	29690
#	34537
#	60901
#	70900
#	93454
#	111974
#	119109
#	179297
#	193076
#	206706
#	256500
#	320649
#
# Disc length: 4635 seconds
#
# Revision: 0
# Processed by: cddbd v1.5.1PL2 Copyright (c) Steve Scherf et al.
# Submitted via: EasyCDDAExtractor 9.0.0.1
#
DISCID=c112190e
DTITLE=John Butler Trio - May 27 2004 Albert Waterways Community Centre (disk 
DTITLE=2)
DYEAR=2004
DGENRE=Blues
TTITLE0=Old Man [Intro]
TTITLE1=Old Man
TTITLE2=Hello [Intro]
TTITLE3=Hello
TTITLE4=Home Is Where The Heart Is [Intro]
TTITLE5=Home Is Where The Heart Is
TTITLE6=Somethings Gotta Give
TTITLE7=Take [Intro]
TTITLE8=Take
TTITLE9=[Pre-Encore (Pee) Break]
TTITLE10=Damned To Hell
TTITLE11=Sometimes
TTITLE12=Betterman
TTITLE13=Zebra
EXTD=
EXTT0=
EXTT1=
EXTT2=
EXTT3=
EXTT4=
EXTT5=
EXTT6=
EXTT7=
EXTT8=
EXTT9=
EXTT10=
EXTT11=
EXTT12=
EXTT13=
PLAYORDER=
